<svg width="312" height="86" viewBox="0 0 312 86" fill="none" xmlns="http://www.w3.org/2000/svg">
<g clip-path="url(#clip0_87_18)">
<path d="M51.5 85.6847C46.8333 86.5135 42.3333 83.5298 41.5 78.8883L28.6667 10.0955C27.8333 5.45408 30.8333 0.978403 35.5 0.149574C40.1667 -0.679255 44.6667 2.30453 45.5 6.94597L58.1667 75.7388C59.1667 80.3802 56 84.8559 51.5 85.6847Z" fill="#DCA6FF"/>
<path d="M18.3333 74.0811C15.5 74.5784 12.3333 73.5838 10.3333 71.2631C7.33332 67.6162 7.66665 62.3117 11.3333 59.3279L64.8333 14.0739C68.5 11.0901 73.8333 11.4216 76.8333 15.0685C79.8333 18.7153 79.5 24.0198 75.8333 27.0036L22.3333 72.0919C21.1667 73.0865 19.6667 73.7495 18.3333 74.0811Z" fill="#A112FF"/>
<path d="M78.1667 62.9748C76.6667 63.3063 75.1667 63.1406 73.8333 62.6433L7.50001 39.2703C3.00001 37.6126 0.666676 32.8054 2.33334 28.3298C4.00001 23.8541 8.83334 21.5334 13.3333 23.191L79.5 46.7298C84 48.3874 86.3333 53.1946 84.6667 57.6703C83.6667 60.4883 81 62.4775 78.1667 62.9748Z" fill="#D089FF"/>
<path d="M86.2676 34.9172C87.0964 39.5838 84.1126 44.0838 79.4712 44.9172L10.6784 57.7505C6.03693 58.5838 1.56126 55.5838 0.732429 50.9172C-0.0964 46.2505 2.88738 41.7505 7.52883 40.9172L76.3216 28.2505C80.9631 27.2505 85.4387 30.4172 86.2676 34.9172Z" fill="url(#paint0_linear_87_18)"/>
<path d="M74.664 68.0838C75.1613 70.9172 74.1667 74.0838 71.8459 76.0838C68.1991 79.0838 62.8946 78.7505 59.9108 75.0838L14.6568 21.5838C11.673 17.9172 12.0045 12.5838 15.6513 9.58382C19.2982 6.58382 24.6027 6.91716 27.5865 10.5838L72.6748 64.0838C73.6694 65.2505 74.3324 66.7505 74.664 68.0838Z" fill="url(#paint1_linear_87_18)"/>
<path d="M63.5577 8.2505C63.8892 9.7505 63.7234 11.2505 63.2261 12.5838L39.8532 78.9172C38.1955 83.4172 33.3883 85.7505 28.9126 84.0838C24.4369 82.4172 22.1162 77.5838 23.7739 73.0838L47.3126 6.91717C48.9703 2.41717 53.7775 0.0838356 58.2532 1.7505C61.0712 2.7505 63.0604 5.41717 63.5577 8.2505Z" fill="url(#paint2_linear_87_18)"/>
<path d="M105.204 42.7C105.204 35.9333 106.693 30.7327 109.67 27.098C112.647 23.4247 116.901 21.588 122.43 21.588C125.33 21.588 127.863 22.0907 130.028 23.096C132.193 24.1013 133.991 25.532 135.422 27.388C136.853 29.244 137.916 31.4673 138.612 34.058C139.308 36.6487 139.656 39.5293 139.656 42.7C139.656 49.4667 138.148 54.6867 135.132 58.36C132.155 61.9947 127.921 63.812 122.43 63.812C119.491 63.812 116.939 63.3093 114.774 62.304C112.609 61.2987 110.811 59.868 109.38 58.012C107.988 56.156 106.944 53.9327 106.248 51.342C105.552 48.7513 105.204 45.8707 105.204 42.7ZM113.556 42.7C113.556 44.7493 113.73 46.644 114.078 48.384C114.426 50.0853 114.948 51.5547 115.644 52.792C116.379 54.0293 117.307 54.996 118.428 55.692C119.549 56.388 120.883 56.736 122.43 56.736C125.253 56.736 127.437 55.634 128.984 53.43C130.531 51.226 131.304 47.6493 131.304 42.7C131.304 40.728 131.13 38.8913 130.782 37.19C130.473 35.4887 129.97 34 129.274 32.724C128.578 31.448 127.669 30.462 126.548 29.766C125.427 29.0313 124.054 28.664 122.43 28.664C119.607 28.664 117.423 29.8047 115.876 32.086C114.329 34.3287 113.556 37.8667 113.556 42.7ZM144.581 34H150.091L150.961 37.48H151.193C152.199 36.0107 153.378 34.928 154.731 34.232C156.123 33.536 157.805 33.188 159.777 33.188C163.412 33.188 166.138 34.348 167.955 36.668C169.773 38.9493 170.681 42.642 170.681 47.746C170.681 50.2207 170.391 52.4633 169.811 54.474C169.231 56.446 168.361 58.128 167.201 59.52C166.08 60.912 164.688 61.9753 163.025 62.71C161.401 63.4447 159.526 63.812 157.399 63.812C156.201 63.812 155.215 63.7153 154.441 63.522C153.668 63.3673 152.895 63.0967 152.121 62.71V74.6H144.581V34ZM157.515 39.568C156.046 39.568 154.886 39.9353 154.035 40.67C153.223 41.4047 152.585 42.5067 152.121 43.976V56.04C152.663 56.4653 153.243 56.8133 153.861 57.084C154.519 57.316 155.369 57.432 156.413 57.432C158.579 57.432 160.203 56.678 161.285 55.17C162.368 53.6233 162.909 51.0907 162.909 47.572C162.909 45.02 162.484 43.048 161.633 41.656C160.783 40.264 159.41 39.568 157.515 39.568ZM198.524 60.506C197.364 61.434 195.778 62.2267 193.768 62.884C191.796 63.5027 189.688 63.812 187.446 63.812C182.767 63.812 179.345 62.4587 177.18 59.752C175.014 57.0067 173.932 53.256 173.932 48.5C173.932 43.396 175.15 39.568 177.586 37.016C180.022 34.464 183.444 33.188 187.852 33.188C189.321 33.188 190.752 33.3813 192.144 33.768C193.536 34.1547 194.773 34.7927 195.856 35.682C196.938 36.5713 197.808 37.77 198.466 39.278C199.123 40.786 199.452 42.6613 199.452 44.904C199.452 45.716 199.394 46.586 199.278 47.514C199.2 48.442 199.065 49.4087 198.872 50.414H181.472C181.588 52.85 182.206 54.6867 183.328 55.924C184.488 57.1613 186.344 57.78 188.896 57.78C190.481 57.78 191.892 57.548 193.13 57.084C194.406 56.5813 195.372 56.0787 196.03 55.576L198.524 60.506ZM187.736 39.22C185.764 39.22 184.294 39.8193 183.328 41.018C182.4 42.178 181.839 43.744 181.646 45.716H192.434C192.588 43.628 192.26 42.0233 191.448 40.902C190.674 39.7807 189.437 39.22 187.736 39.22ZM221.945 63V46.528C221.945 44.1693 221.597 42.468 220.901 41.424C220.244 40.38 219.103 39.858 217.479 39.858C216.048 39.858 214.83 40.2833 213.825 41.134C212.858 41.946 212.162 42.9707 211.737 44.208V63H204.197V34H210.171L211.041 37.828H211.273C212.162 36.5907 213.342 35.508 214.811 34.58C216.28 33.652 218.175 33.188 220.495 33.188C221.926 33.188 223.202 33.3813 224.323 33.768C225.444 34.1547 226.392 34.7927 227.165 35.682C227.938 36.5713 228.518 37.7893 228.905 39.336C229.292 40.844 229.485 42.7193 229.485 44.962V63H221.945ZM262.888 61.318C261.651 62.2073 260.066 62.8453 258.132 63.232C256.238 63.6187 254.285 63.812 252.274 63.812C249.838 63.812 247.518 63.4447 245.314 62.71C243.149 61.9367 241.235 60.7187 239.572 59.056C237.91 57.3547 236.576 55.17 235.57 52.502C234.604 49.7953 234.12 46.528 234.12 42.7C234.12 38.7173 234.662 35.392 235.744 32.724C236.866 30.0173 238.296 27.852 240.036 26.228C241.815 24.5653 243.787 23.386 245.952 22.69C248.118 21.9553 250.283 21.588 252.448 21.588C254.768 21.588 256.721 21.7427 258.306 22.052C259.93 22.3613 261.264 22.7287 262.308 23.154L260.742 29.882C259.853 29.4567 258.79 29.1473 257.552 28.954C256.354 28.7607 254.884 28.664 253.144 28.664C249.935 28.664 247.344 29.8047 245.372 32.086C243.439 34.3673 242.472 37.9053 242.472 42.7C242.472 44.788 242.704 46.702 243.168 48.442C243.632 50.1433 244.328 51.6127 245.256 52.85C246.223 54.0487 247.402 54.996 248.794 55.692C250.225 56.3493 251.868 56.678 253.724 56.678C255.464 56.678 256.934 56.504 258.132 56.156C259.331 55.808 260.375 55.3633 261.264 54.822L262.888 61.318ZM261.929 34H265.931V28.548L273.471 26.402V34H280.547V40.38H273.471V51.516C273.471 53.5267 273.664 54.9767 274.051 55.866C274.476 56.7167 275.25 57.142 276.371 57.142C277.144 57.142 277.802 57.0647 278.343 56.91C278.923 56.7553 279.561 56.5233 280.257 56.214L281.591 62.014C280.547 62.5167 279.329 62.942 277.937 63.29C276.545 63.638 275.134 63.812 273.703 63.812C271.035 63.812 269.063 63.1353 267.787 61.782C266.55 60.39 265.931 58.128 265.931 54.996V40.38H261.929V34ZM290.687 48.152L281.987 34H290.977L294.747 40.206L296.371 44.266L298.111 40.206L302.055 34H310.233L301.475 47.92L310.813 63H302.055L297.589 56.04L295.849 51.748L293.993 56.04L289.527 63H281.291L290.687 48.152Z" fill="white"/>
</g>
<defs>
<linearGradient id="paint0_linear_87_18" x1="0.594391" y1="42.9773" x2="82.5" y2="27.5" gradientUnits="userSpaceOnUse">
<stop stop-color="#BB53FF"/>
<stop offset="0.979608" stop-color="#D089FF"/>
</linearGradient>
<linearGradient id="paint1_linear_87_18" x1="12.6427" y1="42.8338" x2="74.7891" y2="42.8338" gradientUnits="userSpaceOnUse">
<stop stop-color="#BF5FFF"/>
<stop offset="1" stop-color="#DCA6FF"/>
</linearGradient>
<linearGradient id="paint2_linear_87_18" x1="35.5" y1="1.00005" x2="9.00001" y2="79" gradientUnits="userSpaceOnUse">
<stop stop-color="#D089FF"/>
<stop offset="1" stop-color="#A112FF"/>
</linearGradient>
<clipPath id="clip0_87_18">
<rect width="312" height="86" fill="white"/>
</clipPath>
</defs>
</svg>
