<svg width="89" height="92" viewBox="0 0 89 92" fill="none" xmlns="http://www.w3.org/2000/svg">
<path d="M52.5 88.6847C47.8333 89.5135 43.3333 86.5297 42.5 81.8883L29.6667 13.0955C28.8333 8.45406 31.8333 3.97838 36.5 3.14955C41.1667 2.32072 45.6667 5.30451 46.5 9.94595L59.1667 78.7387C60.1667 83.3802 57 87.8559 52.5 88.6847Z" fill="#DCA6FF"/>
<path d="M19.3333 77.0811C16.5 77.5784 13.3333 76.5838 11.3333 74.2631C8.33334 70.6162 8.66667 65.3117 12.3333 62.3279L65.8333 17.0739C69.5 14.0901 74.8333 14.4216 77.8333 18.0685C80.8333 21.7153 80.5 27.0198 76.8333 30.0036L23.3333 75.0919C22.1667 76.0865 20.6667 76.7496 19.3333 77.0811Z" fill="#A112FF"/>
<path d="M79.1667 65.9748C77.6667 66.3063 76.1667 66.1405 74.8333 65.6432L8.50001 42.2703C4.00001 40.6126 1.66667 35.8054 3.33334 31.3297C5.00001 26.8541 9.83334 24.5333 14.3333 26.191L80.5 49.7297C85 51.3874 87.3333 56.1946 85.6667 60.6703C84.6667 63.4883 82 65.4775 79.1667 65.9748Z" fill="#D089FF"/>
<path d="M87.2676 37.9171C88.0964 42.5838 85.1126 47.0838 80.4712 47.9171L11.6784 60.7505C7.03694 61.5838 2.56126 58.5838 1.73243 53.9171C0.903604 49.2505 3.88739 44.7505 8.52883 43.9171L77.3216 31.2504C81.9631 30.2504 86.4387 33.4171 87.2676 37.9171Z" fill="url(#paint0_linear_1_4)"/>
<path d="M75.664 71.0838C76.1613 73.9171 75.1667 77.0838 72.8459 79.0838C69.1991 82.0838 63.8946 81.7505 60.9108 78.0838L15.6568 24.5838C12.673 20.9171 13.0045 15.5838 16.6513 12.5838C20.2982 9.58379 25.6027 9.91712 28.5865 13.5838L73.6748 67.0838C74.6694 68.2505 75.3324 69.7505 75.664 71.0838Z" fill="url(#paint1_linear_1_4)"/>
<path d="M64.5577 11.2505C64.8892 12.7505 64.7234 14.2505 64.2261 15.5838L40.8532 81.9171C39.1955 86.4171 34.3883 88.7505 29.9126 87.0838C25.4369 85.4171 23.1162 80.5838 24.7739 76.0838L48.3126 9.91712C49.9703 5.41712 54.7775 3.08378 59.2531 4.75046C62.0712 5.75046 64.0604 8.41712 64.5577 11.2505Z" fill="url(#paint2_linear_1_4)"/>
<defs>
<linearGradient id="paint0_linear_1_4" x1="1.59439" y1="45.9772" x2="83.5" y2="30.5" gradientUnits="userSpaceOnUse">
<stop stop-color="#BB53FF"/>
<stop offset="0.979608" stop-color="#D089FF"/>
</linearGradient>
<linearGradient id="paint1_linear_1_4" x1="13.6427" y1="45.8338" x2="75.7891" y2="45.8338" gradientUnits="userSpaceOnUse">
<stop stop-color="#BF5FFF"/>
<stop offset="1" stop-color="#DCA6FF"/>
</linearGradient>
<linearGradient id="paint2_linear_1_4" x1="36.5" y1="4" x2="10" y2="82" gradientUnits="userSpaceOnUse">
<stop stop-color="#D089FF"/>
<stop offset="1" stop-color="#A112FF"/>
</linearGradient>
</defs>
</svg>
