<svg width="512" height="93" viewBox="0 0 512 93" fill="none" xmlns="http://www.w3.org/2000/svg">
<path d="M52.5 88.6847C47.8333 89.5135 43.3333 86.5297 42.5 81.8883L29.6667 13.0955C28.8333 8.45405 31.8333 3.97837 36.5 3.14954C41.1667 2.32071 45.6667 5.3045 46.5 9.94594L59.1667 78.7387C60.1667 83.3802 57 87.8559 52.5 88.6847Z" fill="#DCA6FF"/>
<path d="M19.3333 77.0811C16.5 77.5784 13.3333 76.5838 11.3333 74.2631C8.33333 70.6162 8.66667 65.3117 12.3333 62.3279L65.8333 17.0739C69.5 14.0901 74.8333 14.4216 77.8333 18.0685C80.8333 21.7153 80.5 27.0198 76.8333 30.0036L23.3333 75.0919C22.1667 76.0865 20.6667 76.7495 19.3333 77.0811Z" fill="#A112FF"/>
<path d="M79.1667 65.9748C77.6667 66.3063 76.1667 66.1405 74.8333 65.6432L8.50001 42.2703C4.00001 40.6126 1.66667 35.8054 3.33334 31.3297C5.00001 26.854 9.83334 24.5333 14.3333 26.191L80.5 49.7297C85 51.3874 87.3333 56.1946 85.6667 60.6703C84.6667 63.4883 82 65.4775 79.1667 65.9748Z" fill="#D089FF"/>
<path d="M87.2676 37.9171C88.0964 42.5838 85.1126 47.0838 80.4712 47.9171L11.6784 60.7504C7.03694 61.5838 2.56126 58.5838 1.73243 53.9171C0.903604 49.2504 3.88739 44.7504 8.52883 43.9171L77.3216 31.2504C81.9631 30.2504 86.4387 33.4171 87.2676 37.9171Z" fill="url(#paint0_linear_1_4)"/>
<path d="M75.664 71.0838C76.1613 73.9171 75.1667 77.0838 72.8459 79.0838C69.1991 82.0838 63.8946 81.7504 60.9108 78.0838L15.6568 24.5838C12.673 20.9171 13.0045 15.5838 16.6513 12.5838C20.2982 9.58378 25.6027 9.91712 28.5865 13.5838L73.6748 67.0838C74.6694 68.2504 75.3324 69.7504 75.664 71.0838Z" fill="url(#paint1_linear_1_4)"/>
<path d="M64.5577 11.2504C64.8892 12.7504 64.7234 14.2504 64.2261 15.5838L40.8532 81.9171C39.1955 86.4171 34.3883 88.7504 29.9126 87.0838C25.4369 85.4171 23.1162 80.5838 24.7739 76.0838L48.3126 9.91711C49.9703 5.41711 54.7775 3.08377 59.2531 4.75044C62.0712 5.75044 64.0604 8.41711 64.5577 11.2504Z" fill="url(#paint2_linear_1_4)"/>
<path d="M106.204 45.7C106.204 38.9333 107.693 33.7327 110.67 30.098C113.647 26.4247 117.901 24.588 123.43 24.588C126.33 24.588 128.863 25.0907 131.028 26.096C133.193 27.1013 134.991 28.532 136.422 30.388C137.853 32.244 138.916 34.4673 139.612 37.058C140.308 39.6487 140.656 42.5293 140.656 45.7C140.656 52.4667 139.148 57.6867 136.132 61.36C133.155 64.9947 128.921 66.812 123.43 66.812C120.491 66.812 117.939 66.3093 115.774 65.304C113.609 64.2987 111.811 62.868 110.38 61.012C108.988 59.156 107.944 56.9327 107.248 54.342C106.552 51.7513 106.204 48.8707 106.204 45.7ZM114.556 45.7C114.556 47.7493 114.73 49.644 115.078 51.384C115.426 53.0853 115.948 54.5547 116.644 55.792C117.379 57.0293 118.307 57.996 119.428 58.692C120.549 59.388 121.883 59.736 123.43 59.736C126.253 59.736 128.437 58.634 129.984 56.43C131.531 54.226 132.304 50.6493 132.304 45.7C132.304 43.728 132.13 41.8913 131.782 40.19C131.473 38.4887 130.97 37 130.274 35.724C129.578 34.448 128.669 33.462 127.548 32.766C126.427 32.0313 125.054 31.664 123.43 31.664C120.607 31.664 118.423 32.8047 116.876 35.086C115.329 37.3287 114.556 40.8667 114.556 45.7ZM145.581 37H151.091L151.961 40.48H152.193C153.199 39.0107 154.378 37.928 155.731 37.232C157.123 36.536 158.805 36.188 160.777 36.188C164.412 36.188 167.138 37.348 168.955 39.668C170.773 41.9493 171.681 45.642 171.681 50.746C171.681 53.2207 171.391 55.4633 170.811 57.474C170.231 59.446 169.361 61.128 168.201 62.52C167.08 63.912 165.688 64.9753 164.025 65.71C162.401 66.4447 160.526 66.812 158.399 66.812C157.201 66.812 156.215 66.7153 155.441 66.522C154.668 66.3673 153.895 66.0967 153.121 65.71V77.6H145.581V37ZM158.515 42.568C157.046 42.568 155.886 42.9353 155.035 43.67C154.223 44.4047 153.585 45.5067 153.121 46.976V59.04C153.663 59.4653 154.243 59.8133 154.861 60.084C155.519 60.316 156.369 60.432 157.413 60.432C159.579 60.432 161.203 59.678 162.285 58.17C163.368 56.6233 163.909 54.0907 163.909 50.572C163.909 48.02 163.484 46.048 162.633 44.656C161.783 43.264 160.41 42.568 158.515 42.568ZM199.524 63.506C198.364 64.434 196.778 65.2267 194.768 65.884C192.796 66.5027 190.688 66.812 188.446 66.812C183.767 66.812 180.345 65.4587 178.18 62.752C176.014 60.0067 174.932 56.256 174.932 51.5C174.932 46.396 176.15 42.568 178.586 40.016C181.022 37.464 184.444 36.188 188.852 36.188C190.321 36.188 191.752 36.3813 193.144 36.768C194.536 37.1547 195.773 37.7927 196.856 38.682C197.938 39.5713 198.808 40.77 199.466 42.278C200.123 43.786 200.452 45.6613 200.452 47.904C200.452 48.716 200.394 49.586 200.278 50.514C200.2 51.442 200.065 52.4087 199.872 53.414H182.472C182.588 55.85 183.206 57.6867 184.328 58.924C185.488 60.1613 187.344 60.78 189.896 60.78C191.481 60.78 192.892 60.548 194.13 60.084C195.406 59.5813 196.372 59.0787 197.03 58.576L199.524 63.506ZM188.736 42.22C186.764 42.22 185.294 42.8193 184.328 44.018C183.4 45.178 182.839 46.744 182.646 48.716H193.434C193.588 46.628 193.26 45.0233 192.448 43.902C191.674 42.7807 190.437 42.22 188.736 42.22ZM222.945 66V49.528C222.945 47.1693 222.597 45.468 221.901 44.424C221.244 43.38 220.103 42.858 218.479 42.858C217.048 42.858 215.83 43.2833 214.825 44.134C213.858 44.946 213.162 45.9707 212.737 47.208V66H205.197V37H211.171L212.041 40.828H212.273C213.162 39.5907 214.342 38.508 215.811 37.58C217.28 36.652 219.175 36.188 221.495 36.188C222.926 36.188 224.202 36.3813 225.323 36.768C226.444 37.1547 227.392 37.7927 228.165 38.682C228.938 39.5713 229.518 40.7893 229.905 42.336C230.292 43.844 230.485 45.7193 230.485 47.962V66H222.945ZM263.888 64.318C262.651 65.2073 261.066 65.8453 259.132 66.232C257.238 66.6187 255.285 66.812 253.274 66.812C250.838 66.812 248.518 66.4447 246.314 65.71C244.149 64.9367 242.235 63.7187 240.572 62.056C238.91 60.3547 237.576 58.17 236.57 55.502C235.604 52.7953 235.12 49.528 235.12 45.7C235.12 41.7173 235.662 38.392 236.744 35.724C237.866 33.0173 239.296 30.852 241.036 29.228C242.815 27.5653 244.787 26.386 246.952 25.69C249.118 24.9553 251.283 24.588 253.448 24.588C255.768 24.588 257.721 24.7427 259.306 25.052C260.93 25.3613 262.264 25.7287 263.308 26.154L261.742 32.882C260.853 32.4567 259.79 32.1473 258.552 31.954C257.354 31.7607 255.884 31.664 254.144 31.664C250.935 31.664 248.344 32.8047 246.372 35.086C244.439 37.3673 243.472 40.9053 243.472 45.7C243.472 47.788 243.704 49.702 244.168 51.442C244.632 53.1433 245.328 54.6127 246.256 55.85C247.223 57.0487 248.402 57.996 249.794 58.692C251.225 59.3493 252.868 59.678 254.724 59.678C256.464 59.678 257.934 59.504 259.132 59.156C260.331 58.808 261.375 58.3633 262.264 57.822L263.888 64.318ZM264.553 51.5C264.553 46.5893 265.752 42.8193 268.149 40.19C270.546 37.522 273.91 36.188 278.241 36.188C280.561 36.188 282.572 36.5553 284.273 37.29C285.974 38.0247 287.386 39.0687 288.507 40.422C289.628 41.7367 290.46 43.3413 291.001 45.236C291.581 47.1307 291.871 49.2187 291.871 51.5C291.871 56.4107 290.672 60.2 288.275 62.868C285.916 65.4973 282.572 66.812 278.241 66.812C275.921 66.812 273.91 66.4447 272.209 65.71C270.508 64.9753 269.077 63.9507 267.917 62.636C266.796 61.2827 265.945 59.6587 265.365 57.764C264.824 55.8693 264.553 53.7813 264.553 51.5ZM272.325 51.5C272.325 52.776 272.441 53.9553 272.673 55.038C272.905 56.1207 273.253 57.068 273.717 57.88C274.181 58.692 274.78 59.33 275.515 59.794C276.288 60.2193 277.197 60.432 278.241 60.432C280.213 60.432 281.682 59.7167 282.649 58.286C283.616 56.8553 284.099 54.5933 284.099 51.5C284.099 48.832 283.654 46.686 282.765 45.062C281.876 43.3993 280.368 42.568 278.241 42.568C276.385 42.568 274.935 43.264 273.891 44.656C272.847 46.048 272.325 48.3293 272.325 51.5ZM321.167 55.792C321.167 57.416 321.187 59.04 321.225 60.664C321.264 62.288 321.438 64.086 321.747 66.058H316.353L315.309 62.288H315.077C314.304 63.6413 313.183 64.7433 311.713 65.594C310.283 66.406 308.581 66.812 306.609 66.812C302.975 66.812 300.152 65.6133 298.141 63.216C296.131 60.8187 295.125 57.068 295.125 51.964C295.125 47.0147 296.247 43.1673 298.489 40.422C300.732 37.6767 304.019 36.304 308.349 36.304C309.548 36.304 310.534 36.3813 311.307 36.536C312.081 36.652 312.854 36.8647 313.627 37.174V25.4H321.167V55.792ZM308.349 60.432C309.819 60.432 310.979 60.084 311.829 59.388C312.68 58.6533 313.279 57.6093 313.627 56.256V43.96C313.086 43.5347 312.487 43.2253 311.829 43.032C311.172 42.8 310.321 42.684 309.277 42.684C307.151 42.684 305.546 43.3993 304.463 44.83C303.419 46.2607 302.897 48.716 302.897 52.196C302.897 54.6707 303.323 56.662 304.173 58.17C305.063 59.678 306.455 60.432 308.349 60.432ZM350.403 63.506C349.243 64.434 347.658 65.2267 345.647 65.884C343.675 66.5027 341.568 66.812 339.325 66.812C334.646 66.812 331.224 65.4587 329.059 62.752C326.894 60.0067 325.811 56.256 325.811 51.5C325.811 46.396 327.029 42.568 329.465 40.016C331.901 37.464 335.323 36.188 339.731 36.188C341.2 36.188 342.631 36.3813 344.023 36.768C345.415 37.1547 346.652 37.7927 347.735 38.682C348.818 39.5713 349.688 40.77 350.345 42.278C351.002 43.786 351.331 45.6613 351.331 47.904C351.331 48.716 351.273 49.586 351.157 50.514C351.08 51.442 350.944 52.4087 350.751 53.414H333.351C333.467 55.85 334.086 57.6867 335.207 58.924C336.367 60.1613 338.223 60.78 340.775 60.78C342.36 60.78 343.772 60.548 345.009 60.084C346.285 59.5813 347.252 59.0787 347.909 58.576L350.403 63.506ZM339.615 42.22C337.643 42.22 336.174 42.8193 335.207 44.018C334.279 45.178 333.718 46.744 333.525 48.716H344.313C344.468 46.628 344.139 45.0233 343.327 43.902C342.554 42.7807 341.316 42.22 339.615 42.22ZM370.576 44.83H385.714V62.926C384.09 64.2793 382.137 65.2653 379.856 65.884C377.613 66.5027 375.39 66.812 373.186 66.812C370.595 66.812 368.179 66.406 365.936 65.594C363.732 64.782 361.818 63.5253 360.194 61.824C358.57 60.084 357.294 57.88 356.366 55.212C355.438 52.544 354.974 49.3733 354.974 45.7C354.974 41.872 355.515 38.624 356.598 35.956C357.719 33.2493 359.169 31.0647 360.948 29.402C362.765 27.7007 364.795 26.4827 367.038 25.748C369.281 24.9747 371.562 24.588 373.882 24.588C376.202 24.588 378.232 24.762 379.972 25.11C381.751 25.458 383.162 25.8253 384.206 26.212L382.582 32.882C381.615 32.4953 380.533 32.2053 379.334 32.012C378.135 31.78 376.608 31.664 374.752 31.664C373.089 31.664 371.562 31.9153 370.17 32.418C368.778 32.9207 367.56 33.752 366.516 34.912C365.511 36.0333 364.718 37.4833 364.138 39.262C363.597 41.0407 363.326 43.206 363.326 45.758C363.326 48.194 363.597 50.3013 364.138 52.08C364.679 53.82 365.433 55.27 366.4 56.43C367.367 57.5513 368.488 58.3827 369.764 58.924C371.079 59.4653 372.471 59.736 373.94 59.736C374.945 59.736 375.931 59.62 376.898 59.388C377.865 59.1173 378.677 58.7307 379.334 58.228V50.572L370.576 49.644V44.83ZM406.848 44.076C405.649 43.6507 404.567 43.438 403.6 43.438C402.247 43.438 401.106 43.8053 400.178 44.54C399.289 45.236 398.689 46.1447 398.38 47.266V66H390.84V37H396.698L397.568 40.828H397.8C398.457 39.3973 399.347 38.2953 400.468 37.522C401.589 36.7487 402.904 36.362 404.412 36.362C405.417 36.362 406.558 36.5747 407.834 37L406.848 44.076ZM410.42 38.682C411.967 37.986 413.803 37.4447 415.93 37.058C418.057 36.6327 420.28 36.42 422.6 36.42C424.611 36.42 426.293 36.6713 427.646 37.174C428.999 37.638 430.063 38.3147 430.836 39.204C431.648 40.0933 432.209 41.1567 432.518 42.394C432.866 43.6313 433.04 45.0233 433.04 46.57C433.04 48.2713 432.982 49.992 432.866 51.732C432.75 53.4333 432.673 55.1153 432.634 56.778C432.634 58.4407 432.692 60.0647 432.808 61.65C432.924 63.1967 433.214 64.666 433.678 66.058H427.53L426.312 62.056H426.022C425.249 63.2547 424.166 64.2987 422.774 65.188C421.421 66.0387 419.661 66.464 417.496 66.464C416.143 66.464 414.925 66.2707 413.842 65.884C412.759 65.4587 411.831 64.8787 411.058 64.144C410.285 63.3707 409.685 62.4813 409.26 61.476C408.835 60.432 408.622 59.272 408.622 57.996C408.622 56.2173 409.009 54.7287 409.782 53.53C410.594 52.2927 411.735 51.3067 413.204 50.572C414.712 49.7987 416.491 49.2767 418.54 49.006C420.628 48.6967 422.948 48.6 425.5 48.716C425.771 46.5507 425.616 45.004 425.036 44.076C424.456 43.1093 423.161 42.626 421.15 42.626C419.642 42.626 418.037 42.7807 416.336 43.09C414.673 43.3993 413.301 43.8053 412.218 44.308L410.42 38.682ZM419.99 60.258C421.498 60.258 422.697 59.9293 423.586 59.272C424.475 58.576 425.133 57.8413 425.558 57.068V53.298C424.359 53.182 423.199 53.1627 422.078 53.24C420.995 53.3173 420.029 53.4913 419.178 53.762C418.327 54.0327 417.651 54.4193 417.148 54.922C416.645 55.4247 416.394 56.0627 416.394 56.836C416.394 57.9187 416.703 58.7693 417.322 59.388C417.979 59.968 418.869 60.258 419.99 60.258ZM438.787 37H444.297L445.167 40.48H445.399C446.405 39.0107 447.584 37.928 448.937 37.232C450.329 36.536 452.011 36.188 453.983 36.188C457.618 36.188 460.344 37.348 462.161 39.668C463.979 41.9493 464.887 45.642 464.887 50.746C464.887 53.2207 464.597 55.4633 464.017 57.474C463.437 59.446 462.567 61.128 461.407 62.52C460.286 63.912 458.894 64.9753 457.231 65.71C455.607 66.4447 453.732 66.812 451.605 66.812C450.407 66.812 449.421 66.7153 448.647 66.522C447.874 66.3673 447.101 66.0967 446.327 65.71V77.6H438.787V37ZM451.721 42.568C450.252 42.568 449.092 42.9353 448.241 43.67C447.429 44.4047 446.791 45.5067 446.327 46.976V59.04C446.869 59.4653 447.449 59.8133 448.067 60.084C448.725 60.316 449.575 60.432 450.619 60.432C452.785 60.432 454.409 59.678 455.491 58.17C456.574 56.6233 457.115 54.0907 457.115 50.572C457.115 48.02 456.69 46.048 455.839 44.656C454.989 43.264 453.616 42.568 451.721 42.568ZM487.278 66V49.528C487.278 47.1693 486.949 45.468 486.292 44.424C485.634 43.38 484.436 42.858 482.696 42.858C481.42 42.858 480.24 43.3027 479.158 44.192C478.114 45.0427 477.418 46.1447 477.07 47.498V66H469.53V25.4H477.07V40.248H477.302C478.23 39.0107 479.37 38.0247 480.724 37.29C482.077 36.5553 483.798 36.188 485.886 36.188C487.355 36.188 488.65 36.3813 489.772 36.768C490.893 37.1547 491.821 37.7927 492.556 38.682C493.329 39.5713 493.89 40.7893 494.238 42.336C494.624 43.844 494.818 45.7193 494.818 47.962V66H487.278Z" fill="white"/>
<defs>
<linearGradient id="paint0_linear_1_4" x1="1.59439" y1="45.9772" x2="83.5" y2="30.5" gradientUnits="userSpaceOnUse">
<stop stop-color="#BB53FF"/>
<stop offset="0.979608" stop-color="#D089FF"/>
</linearGradient>
<linearGradient id="paint1_linear_1_4" x1="13.6427" y1="45.8338" x2="75.7891" y2="45.8338" gradientUnits="userSpaceOnUse">
<stop stop-color="#BF5FFF"/>
<stop offset="1" stop-color="#DCA6FF"/>
</linearGradient>
<linearGradient id="paint2_linear_1_4" x1="36.5" y1="3.99999" x2="10" y2="82" gradientUnits="userSpaceOnUse">
<stop stop-color="#D089FF"/>
<stop offset="1" stop-color="#A112FF"/>
</linearGradient>
</defs>
</svg>
